<mxfile host="app.diagrams.net" modified="2023-08-01T05:31:29.457Z" agent="Mozilla/5.0 (Windows NT 10.0; Win64; x64) AppleWebKit/537.36 (KHTML, like Gecko) Chrome/115.0.0.0 Safari/537.36" etag="fKvoyMNFgJzL54fvyqbQ" version="21.6.6" type="device">
  <diagram id="R2lEEEUBdFMjLlhIrx00" name="Page-1">
    <mxGraphModel dx="3585" dy="1895" grid="1" gridSize="10" guides="1" tooltips="1" connect="1" arrows="1" fold="1" page="1" pageScale="1" pageWidth="850" pageHeight="1100" math="0" shadow="0" extFonts="Permanent Marker^https://fonts.googleapis.com/css?family=Permanent+Marker">
      <root>
        <mxCell id="0" />
        <mxCell id="1" parent="0" />
        <mxCell id="C-vyLk0tnHw3VtMMgP7b-1" value="" style="edgeStyle=entityRelationEdgeStyle;endArrow=ERzeroToMany;startArrow=ERone;endFill=1;startFill=0;" parent="1" edge="1">
          <mxGeometry width="100" height="100" relative="1" as="geometry">
            <mxPoint x="370" y="165" as="sourcePoint" />
            <mxPoint x="450" y="195" as="targetPoint" />
          </mxGeometry>
        </mxCell>
        <mxCell id="C-vyLk0tnHw3VtMMgP7b-12" value="" style="edgeStyle=entityRelationEdgeStyle;endArrow=ERzeroToMany;startArrow=ERone;endFill=1;startFill=0;" parent="1" edge="1">
          <mxGeometry width="100" height="100" relative="1" as="geometry">
            <mxPoint x="700" y="165" as="sourcePoint" />
            <mxPoint x="700" y="355" as="targetPoint" />
          </mxGeometry>
        </mxCell>
        <mxCell id="OOhjOFWducsfs52bPkuV-1" value="lines" style="shape=table;startSize=30;container=1;collapsible=1;childLayout=tableLayout;fixedRows=1;rowLines=0;fontStyle=1;align=center;resizeLast=1;" vertex="1" parent="1">
          <mxGeometry x="1020" y="40" width="440" height="190" as="geometry" />
        </mxCell>
        <mxCell id="OOhjOFWducsfs52bPkuV-2" value="" style="shape=partialRectangle;collapsible=0;dropTarget=0;pointerEvents=0;fillColor=none;points=[[0,0.5],[1,0.5]];portConstraint=eastwest;top=0;left=0;right=0;bottom=1;" vertex="1" parent="OOhjOFWducsfs52bPkuV-1">
          <mxGeometry y="30" width="440" height="30" as="geometry" />
        </mxCell>
        <mxCell id="OOhjOFWducsfs52bPkuV-3" value="PK" style="shape=partialRectangle;overflow=hidden;connectable=0;fillColor=none;top=0;left=0;bottom=0;right=0;fontStyle=1;" vertex="1" parent="OOhjOFWducsfs52bPkuV-2">
          <mxGeometry width="30" height="30" as="geometry">
            <mxRectangle width="30" height="30" as="alternateBounds" />
          </mxGeometry>
        </mxCell>
        <mxCell id="OOhjOFWducsfs52bPkuV-4" value="id BIGINT(20) UNSIGNED NOT NULL AUTOINCREMENT" style="shape=partialRectangle;overflow=hidden;connectable=0;fillColor=none;top=0;left=0;bottom=0;right=0;align=left;spacingLeft=6;fontStyle=5;" vertex="1" parent="OOhjOFWducsfs52bPkuV-2">
          <mxGeometry x="30" width="410" height="30" as="geometry">
            <mxRectangle width="410" height="30" as="alternateBounds" />
          </mxGeometry>
        </mxCell>
        <mxCell id="OOhjOFWducsfs52bPkuV-5" value="" style="shape=partialRectangle;collapsible=0;dropTarget=0;pointerEvents=0;fillColor=none;points=[[0,0.5],[1,0.5]];portConstraint=eastwest;top=0;left=0;right=0;bottom=0;" vertex="1" parent="OOhjOFWducsfs52bPkuV-1">
          <mxGeometry y="60" width="440" height="30" as="geometry" />
        </mxCell>
        <mxCell id="OOhjOFWducsfs52bPkuV-6" value="" style="shape=partialRectangle;overflow=hidden;connectable=0;fillColor=none;top=0;left=0;bottom=0;right=0;" vertex="1" parent="OOhjOFWducsfs52bPkuV-5">
          <mxGeometry width="30" height="30" as="geometry">
            <mxRectangle width="30" height="30" as="alternateBounds" />
          </mxGeometry>
        </mxCell>
        <mxCell id="OOhjOFWducsfs52bPkuV-7" value="name varchar(10) NOT NULL" style="shape=partialRectangle;overflow=hidden;connectable=0;fillColor=none;top=0;left=0;bottom=0;right=0;align=left;spacingLeft=6;" vertex="1" parent="OOhjOFWducsfs52bPkuV-5">
          <mxGeometry x="30" width="410" height="30" as="geometry">
            <mxRectangle width="410" height="30" as="alternateBounds" />
          </mxGeometry>
        </mxCell>
        <mxCell id="OOhjOFWducsfs52bPkuV-15" value="" style="shape=partialRectangle;collapsible=0;dropTarget=0;pointerEvents=0;fillColor=none;points=[[0,0.5],[1,0.5]];portConstraint=eastwest;top=0;left=0;right=0;bottom=0;" vertex="1" parent="OOhjOFWducsfs52bPkuV-1">
          <mxGeometry y="90" width="440" height="30" as="geometry" />
        </mxCell>
        <mxCell id="OOhjOFWducsfs52bPkuV-16" value="" style="shape=partialRectangle;overflow=hidden;connectable=0;fillColor=none;top=0;left=0;bottom=0;right=0;" vertex="1" parent="OOhjOFWducsfs52bPkuV-15">
          <mxGeometry width="30" height="30" as="geometry">
            <mxRectangle width="30" height="30" as="alternateBounds" />
          </mxGeometry>
        </mxCell>
        <mxCell id="OOhjOFWducsfs52bPkuV-17" value="color varchar(15) NOT NULL" style="shape=partialRectangle;overflow=hidden;connectable=0;fillColor=none;top=0;left=0;bottom=0;right=0;align=left;spacingLeft=6;" vertex="1" parent="OOhjOFWducsfs52bPkuV-15">
          <mxGeometry x="30" width="410" height="30" as="geometry">
            <mxRectangle width="410" height="30" as="alternateBounds" />
          </mxGeometry>
        </mxCell>
        <mxCell id="OOhjOFWducsfs52bPkuV-18" value="" style="shape=partialRectangle;collapsible=0;dropTarget=0;pointerEvents=0;fillColor=none;points=[[0,0.5],[1,0.5]];portConstraint=eastwest;top=0;left=0;right=0;bottom=0;" vertex="1" parent="OOhjOFWducsfs52bPkuV-1">
          <mxGeometry y="120" width="440" height="30" as="geometry" />
        </mxCell>
        <mxCell id="OOhjOFWducsfs52bPkuV-19" value="" style="shape=partialRectangle;overflow=hidden;connectable=0;fillColor=none;top=0;left=0;bottom=0;right=0;" vertex="1" parent="OOhjOFWducsfs52bPkuV-18">
          <mxGeometry width="30" height="30" as="geometry">
            <mxRectangle width="30" height="30" as="alternateBounds" />
          </mxGeometry>
        </mxCell>
        <mxCell id="OOhjOFWducsfs52bPkuV-20" value="created_at timestamp() NOT NULL DEFAULT NOW" style="shape=partialRectangle;overflow=hidden;connectable=0;fillColor=none;top=0;left=0;bottom=0;right=0;align=left;spacingLeft=6;" vertex="1" parent="OOhjOFWducsfs52bPkuV-18">
          <mxGeometry x="30" width="410" height="30" as="geometry">
            <mxRectangle width="410" height="30" as="alternateBounds" />
          </mxGeometry>
        </mxCell>
        <mxCell id="OOhjOFWducsfs52bPkuV-21" value="" style="shape=partialRectangle;collapsible=0;dropTarget=0;pointerEvents=0;fillColor=none;points=[[0,0.5],[1,0.5]];portConstraint=eastwest;top=0;left=0;right=0;bottom=0;" vertex="1" parent="OOhjOFWducsfs52bPkuV-1">
          <mxGeometry y="150" width="440" height="30" as="geometry" />
        </mxCell>
        <mxCell id="OOhjOFWducsfs52bPkuV-22" value="" style="shape=partialRectangle;overflow=hidden;connectable=0;fillColor=none;top=0;left=0;bottom=0;right=0;" vertex="1" parent="OOhjOFWducsfs52bPkuV-21">
          <mxGeometry width="30" height="30" as="geometry">
            <mxRectangle width="30" height="30" as="alternateBounds" />
          </mxGeometry>
        </mxCell>
        <mxCell id="OOhjOFWducsfs52bPkuV-23" value="updated_atÂ  timestamp() NOT NULL DEFAULT NOW" style="shape=partialRectangle;overflow=hidden;connectable=0;fillColor=none;top=0;left=0;bottom=0;right=0;align=left;spacingLeft=6;" vertex="1" parent="OOhjOFWducsfs52bPkuV-21">
          <mxGeometry x="30" width="410" height="30" as="geometry">
            <mxRectangle width="410" height="30" as="alternateBounds" />
          </mxGeometry>
        </mxCell>
        <mxCell id="OOhjOFWducsfs52bPkuV-36" value="stations" style="shape=table;startSize=30;container=1;collapsible=1;childLayout=tableLayout;fixedRows=1;rowLines=0;fontStyle=1;align=center;resizeLast=1;" vertex="1" parent="1">
          <mxGeometry x="1030" y="880" width="430" height="170" as="geometry" />
        </mxCell>
        <mxCell id="OOhjOFWducsfs52bPkuV-37" value="" style="shape=partialRectangle;collapsible=0;dropTarget=0;pointerEvents=0;fillColor=none;points=[[0,0.5],[1,0.5]];portConstraint=eastwest;top=0;left=0;right=0;bottom=1;" vertex="1" parent="OOhjOFWducsfs52bPkuV-36">
          <mxGeometry y="30" width="430" height="30" as="geometry" />
        </mxCell>
        <mxCell id="OOhjOFWducsfs52bPkuV-38" value="PK" style="shape=partialRectangle;overflow=hidden;connectable=0;fillColor=none;top=0;left=0;bottom=0;right=0;fontStyle=1;" vertex="1" parent="OOhjOFWducsfs52bPkuV-37">
          <mxGeometry width="30" height="30" as="geometry">
            <mxRectangle width="30" height="30" as="alternateBounds" />
          </mxGeometry>
        </mxCell>
        <mxCell id="OOhjOFWducsfs52bPkuV-39" value="id BIGINT(20) UNSIGNED NOT NULL AUTOINCREMENT" style="shape=partialRectangle;overflow=hidden;connectable=0;fillColor=none;top=0;left=0;bottom=0;right=0;align=left;spacingLeft=6;fontStyle=5;" vertex="1" parent="OOhjOFWducsfs52bPkuV-37">
          <mxGeometry x="30" width="400" height="30" as="geometry">
            <mxRectangle width="400" height="30" as="alternateBounds" />
          </mxGeometry>
        </mxCell>
        <mxCell id="OOhjOFWducsfs52bPkuV-40" value="" style="shape=partialRectangle;collapsible=0;dropTarget=0;pointerEvents=0;fillColor=none;points=[[0,0.5],[1,0.5]];portConstraint=eastwest;top=0;left=0;right=0;bottom=0;" vertex="1" parent="OOhjOFWducsfs52bPkuV-36">
          <mxGeometry y="60" width="430" height="30" as="geometry" />
        </mxCell>
        <mxCell id="OOhjOFWducsfs52bPkuV-41" value="FK1" style="shape=partialRectangle;overflow=hidden;connectable=0;fillColor=none;top=0;left=0;bottom=0;right=0;" vertex="1" parent="OOhjOFWducsfs52bPkuV-40">
          <mxGeometry width="30" height="30" as="geometry">
            <mxRectangle width="30" height="30" as="alternateBounds" />
          </mxGeometry>
        </mxCell>
        <mxCell id="OOhjOFWducsfs52bPkuV-42" value="name varchar(50) NOT NULL" style="shape=partialRectangle;overflow=hidden;connectable=0;fillColor=none;top=0;left=0;bottom=0;right=0;align=left;spacingLeft=6;" vertex="1" parent="OOhjOFWducsfs52bPkuV-40">
          <mxGeometry x="30" width="400" height="30" as="geometry">
            <mxRectangle width="400" height="30" as="alternateBounds" />
          </mxGeometry>
        </mxCell>
        <mxCell id="OOhjOFWducsfs52bPkuV-49" value="" style="shape=partialRectangle;collapsible=0;dropTarget=0;pointerEvents=0;fillColor=none;points=[[0,0.5],[1,0.5]];portConstraint=eastwest;top=0;left=0;right=0;bottom=0;" vertex="1" parent="OOhjOFWducsfs52bPkuV-36">
          <mxGeometry y="90" width="430" height="30" as="geometry" />
        </mxCell>
        <mxCell id="OOhjOFWducsfs52bPkuV-50" value="" style="shape=partialRectangle;overflow=hidden;connectable=0;fillColor=none;top=0;left=0;bottom=0;right=0;" vertex="1" parent="OOhjOFWducsfs52bPkuV-49">
          <mxGeometry width="30" height="30" as="geometry">
            <mxRectangle width="30" height="30" as="alternateBounds" />
          </mxGeometry>
        </mxCell>
        <mxCell id="OOhjOFWducsfs52bPkuV-51" value="created_at timestamp() NOT NULL DEFAULT NOW" style="shape=partialRectangle;overflow=hidden;connectable=0;fillColor=none;top=0;left=0;bottom=0;right=0;align=left;spacingLeft=6;" vertex="1" parent="OOhjOFWducsfs52bPkuV-49">
          <mxGeometry x="30" width="400" height="30" as="geometry">
            <mxRectangle width="400" height="30" as="alternateBounds" />
          </mxGeometry>
        </mxCell>
        <mxCell id="OOhjOFWducsfs52bPkuV-52" value="" style="shape=partialRectangle;collapsible=0;dropTarget=0;pointerEvents=0;fillColor=none;points=[[0,0.5],[1,0.5]];portConstraint=eastwest;top=0;left=0;right=0;bottom=0;" vertex="1" parent="OOhjOFWducsfs52bPkuV-36">
          <mxGeometry y="120" width="430" height="30" as="geometry" />
        </mxCell>
        <mxCell id="OOhjOFWducsfs52bPkuV-53" value="" style="shape=partialRectangle;overflow=hidden;connectable=0;fillColor=none;top=0;left=0;bottom=0;right=0;" vertex="1" parent="OOhjOFWducsfs52bPkuV-52">
          <mxGeometry width="30" height="30" as="geometry">
            <mxRectangle width="30" height="30" as="alternateBounds" />
          </mxGeometry>
        </mxCell>
        <mxCell id="OOhjOFWducsfs52bPkuV-54" value="updated_atÂ  timestamp() NOT NULL DEFAULT NOW" style="shape=partialRectangle;overflow=hidden;connectable=0;fillColor=none;top=0;left=0;bottom=0;right=0;align=left;spacingLeft=6;" vertex="1" parent="OOhjOFWducsfs52bPkuV-52">
          <mxGeometry x="30" width="400" height="30" as="geometry">
            <mxRectangle width="400" height="30" as="alternateBounds" />
          </mxGeometry>
        </mxCell>
        <mxCell id="OOhjOFWducsfs52bPkuV-56" value="locations" style="shape=table;startSize=30;container=1;collapsible=1;childLayout=tableLayout;fixedRows=1;rowLines=0;fontStyle=1;align=center;resizeLast=1;" vertex="1" parent="1">
          <mxGeometry x="1880" y="870" width="430" height="210" as="geometry" />
        </mxCell>
        <mxCell id="OOhjOFWducsfs52bPkuV-57" value="" style="shape=partialRectangle;collapsible=0;dropTarget=0;pointerEvents=0;fillColor=none;points=[[0,0.5],[1,0.5]];portConstraint=eastwest;top=0;left=0;right=0;bottom=1;" vertex="1" parent="OOhjOFWducsfs52bPkuV-56">
          <mxGeometry y="30" width="430" height="30" as="geometry" />
        </mxCell>
        <mxCell id="OOhjOFWducsfs52bPkuV-58" value="PK" style="shape=partialRectangle;overflow=hidden;connectable=0;fillColor=none;top=0;left=0;bottom=0;right=0;fontStyle=1;" vertex="1" parent="OOhjOFWducsfs52bPkuV-57">
          <mxGeometry width="30" height="30" as="geometry">
            <mxRectangle width="30" height="30" as="alternateBounds" />
          </mxGeometry>
        </mxCell>
        <mxCell id="OOhjOFWducsfs52bPkuV-59" value="id BIGINT(20) UNSIGNED NOT NULL AUTOINCREMENT" style="shape=partialRectangle;overflow=hidden;connectable=0;fillColor=none;top=0;left=0;bottom=0;right=0;align=left;spacingLeft=6;fontStyle=5;" vertex="1" parent="OOhjOFWducsfs52bPkuV-57">
          <mxGeometry x="30" width="400" height="30" as="geometry">
            <mxRectangle width="400" height="30" as="alternateBounds" />
          </mxGeometry>
        </mxCell>
        <mxCell id="OOhjOFWducsfs52bPkuV-60" value="" style="shape=partialRectangle;collapsible=0;dropTarget=0;pointerEvents=0;fillColor=none;points=[[0,0.5],[1,0.5]];portConstraint=eastwest;top=0;left=0;right=0;bottom=0;" vertex="1" parent="OOhjOFWducsfs52bPkuV-56">
          <mxGeometry y="60" width="430" height="30" as="geometry" />
        </mxCell>
        <mxCell id="OOhjOFWducsfs52bPkuV-61" value="FK1" style="shape=partialRectangle;overflow=hidden;connectable=0;fillColor=none;top=0;left=0;bottom=0;right=0;" vertex="1" parent="OOhjOFWducsfs52bPkuV-60">
          <mxGeometry width="30" height="30" as="geometry">
            <mxRectangle width="30" height="30" as="alternateBounds" />
          </mxGeometry>
        </mxCell>
        <mxCell id="OOhjOFWducsfs52bPkuV-62" value="station_id BIGINT(20) UNSIGNED NOT NULL" style="shape=partialRectangle;overflow=hidden;connectable=0;fillColor=none;top=0;left=0;bottom=0;right=0;align=left;spacingLeft=6;" vertex="1" parent="OOhjOFWducsfs52bPkuV-60">
          <mxGeometry x="30" width="400" height="30" as="geometry">
            <mxRectangle width="400" height="30" as="alternateBounds" />
          </mxGeometry>
        </mxCell>
        <mxCell id="OOhjOFWducsfs52bPkuV-63" value="" style="shape=partialRectangle;collapsible=0;dropTarget=0;pointerEvents=0;fillColor=none;points=[[0,0.5],[1,0.5]];portConstraint=eastwest;top=0;left=0;right=0;bottom=0;" vertex="1" parent="OOhjOFWducsfs52bPkuV-56">
          <mxGeometry y="90" width="430" height="30" as="geometry" />
        </mxCell>
        <mxCell id="OOhjOFWducsfs52bPkuV-64" value="" style="shape=partialRectangle;overflow=hidden;connectable=0;fillColor=none;top=0;left=0;bottom=0;right=0;" vertex="1" parent="OOhjOFWducsfs52bPkuV-63">
          <mxGeometry width="30" height="30" as="geometry">
            <mxRectangle width="30" height="30" as="alternateBounds" />
          </mxGeometry>
        </mxCell>
        <mxCell id="OOhjOFWducsfs52bPkuV-65" value="location point NOT NULL" style="shape=partialRectangle;overflow=hidden;connectable=0;fillColor=none;top=0;left=0;bottom=0;right=0;align=left;spacingLeft=6;" vertex="1" parent="OOhjOFWducsfs52bPkuV-63">
          <mxGeometry x="30" width="400" height="30" as="geometry">
            <mxRectangle width="400" height="30" as="alternateBounds" />
          </mxGeometry>
        </mxCell>
        <mxCell id="OOhjOFWducsfs52bPkuV-69" value="" style="shape=partialRectangle;collapsible=0;dropTarget=0;pointerEvents=0;fillColor=none;points=[[0,0.5],[1,0.5]];portConstraint=eastwest;top=0;left=0;right=0;bottom=0;" vertex="1" parent="OOhjOFWducsfs52bPkuV-56">
          <mxGeometry y="120" width="430" height="30" as="geometry" />
        </mxCell>
        <mxCell id="OOhjOFWducsfs52bPkuV-70" value="" style="shape=partialRectangle;overflow=hidden;connectable=0;fillColor=none;top=0;left=0;bottom=0;right=0;" vertex="1" parent="OOhjOFWducsfs52bPkuV-69">
          <mxGeometry width="30" height="30" as="geometry">
            <mxRectangle width="30" height="30" as="alternateBounds" />
          </mxGeometry>
        </mxCell>
        <mxCell id="OOhjOFWducsfs52bPkuV-71" value="created_at timestamp() NOT NULL DEFAULT NOW" style="shape=partialRectangle;overflow=hidden;connectable=0;fillColor=none;top=0;left=0;bottom=0;right=0;align=left;spacingLeft=6;" vertex="1" parent="OOhjOFWducsfs52bPkuV-69">
          <mxGeometry x="30" width="400" height="30" as="geometry">
            <mxRectangle width="400" height="30" as="alternateBounds" />
          </mxGeometry>
        </mxCell>
        <mxCell id="OOhjOFWducsfs52bPkuV-72" value="" style="shape=partialRectangle;collapsible=0;dropTarget=0;pointerEvents=0;fillColor=none;points=[[0,0.5],[1,0.5]];portConstraint=eastwest;top=0;left=0;right=0;bottom=0;" vertex="1" parent="OOhjOFWducsfs52bPkuV-56">
          <mxGeometry y="150" width="430" height="30" as="geometry" />
        </mxCell>
        <mxCell id="OOhjOFWducsfs52bPkuV-73" value="" style="shape=partialRectangle;overflow=hidden;connectable=0;fillColor=none;top=0;left=0;bottom=0;right=0;" vertex="1" parent="OOhjOFWducsfs52bPkuV-72">
          <mxGeometry width="30" height="30" as="geometry">
            <mxRectangle width="30" height="30" as="alternateBounds" />
          </mxGeometry>
        </mxCell>
        <mxCell id="OOhjOFWducsfs52bPkuV-74" value="updated_atÂ  timestamp() NOT NULL DEFAULT NOW" style="shape=partialRectangle;overflow=hidden;connectable=0;fillColor=none;top=0;left=0;bottom=0;right=0;align=left;spacingLeft=6;" vertex="1" parent="OOhjOFWducsfs52bPkuV-72">
          <mxGeometry x="30" width="400" height="30" as="geometry">
            <mxRectangle width="400" height="30" as="alternateBounds" />
          </mxGeometry>
        </mxCell>
        <mxCell id="OOhjOFWducsfs52bPkuV-75" value="drivers" style="shape=table;startSize=30;container=1;collapsible=1;childLayout=tableLayout;fixedRows=1;rowLines=0;fontStyle=1;align=center;resizeLast=1;" vertex="1" parent="1">
          <mxGeometry x="1020" y="590" width="430" height="210" as="geometry" />
        </mxCell>
        <mxCell id="OOhjOFWducsfs52bPkuV-76" value="" style="shape=partialRectangle;collapsible=0;dropTarget=0;pointerEvents=0;fillColor=none;points=[[0,0.5],[1,0.5]];portConstraint=eastwest;top=0;left=0;right=0;bottom=1;" vertex="1" parent="OOhjOFWducsfs52bPkuV-75">
          <mxGeometry y="30" width="430" height="30" as="geometry" />
        </mxCell>
        <mxCell id="OOhjOFWducsfs52bPkuV-77" value="PK" style="shape=partialRectangle;overflow=hidden;connectable=0;fillColor=none;top=0;left=0;bottom=0;right=0;fontStyle=1;" vertex="1" parent="OOhjOFWducsfs52bPkuV-76">
          <mxGeometry width="30" height="30" as="geometry">
            <mxRectangle width="30" height="30" as="alternateBounds" />
          </mxGeometry>
        </mxCell>
        <mxCell id="OOhjOFWducsfs52bPkuV-78" value="id BIGINT(20) UNSIGNED NOT NULL AUTOINCREMENT" style="shape=partialRectangle;overflow=hidden;connectable=0;fillColor=none;top=0;left=0;bottom=0;right=0;align=left;spacingLeft=6;fontStyle=5;" vertex="1" parent="OOhjOFWducsfs52bPkuV-76">
          <mxGeometry x="30" width="400" height="30" as="geometry">
            <mxRectangle width="400" height="30" as="alternateBounds" />
          </mxGeometry>
        </mxCell>
        <mxCell id="OOhjOFWducsfs52bPkuV-79" value="" style="shape=partialRectangle;collapsible=0;dropTarget=0;pointerEvents=0;fillColor=none;points=[[0,0.5],[1,0.5]];portConstraint=eastwest;top=0;left=0;right=0;bottom=0;" vertex="1" parent="OOhjOFWducsfs52bPkuV-75">
          <mxGeometry y="60" width="430" height="30" as="geometry" />
        </mxCell>
        <mxCell id="OOhjOFWducsfs52bPkuV-80" value="FK1" style="shape=partialRectangle;overflow=hidden;connectable=0;fillColor=none;top=0;left=0;bottom=0;right=0;" vertex="1" parent="OOhjOFWducsfs52bPkuV-79">
          <mxGeometry width="30" height="30" as="geometry">
            <mxRectangle width="30" height="30" as="alternateBounds" />
          </mxGeometry>
        </mxCell>
        <mxCell id="OOhjOFWducsfs52bPkuV-81" value="name varchar(20) NOT NULL" style="shape=partialRectangle;overflow=hidden;connectable=0;fillColor=none;top=0;left=0;bottom=0;right=0;align=left;spacingLeft=6;" vertex="1" parent="OOhjOFWducsfs52bPkuV-79">
          <mxGeometry x="30" width="400" height="30" as="geometry">
            <mxRectangle width="400" height="30" as="alternateBounds" />
          </mxGeometry>
        </mxCell>
        <mxCell id="OOhjOFWducsfs52bPkuV-82" value="" style="shape=partialRectangle;collapsible=0;dropTarget=0;pointerEvents=0;fillColor=none;points=[[0,0.5],[1,0.5]];portConstraint=eastwest;top=0;left=0;right=0;bottom=0;" vertex="1" parent="OOhjOFWducsfs52bPkuV-75">
          <mxGeometry y="90" width="430" height="30" as="geometry" />
        </mxCell>
        <mxCell id="OOhjOFWducsfs52bPkuV-83" value="" style="shape=partialRectangle;overflow=hidden;connectable=0;fillColor=none;top=0;left=0;bottom=0;right=0;" vertex="1" parent="OOhjOFWducsfs52bPkuV-82">
          <mxGeometry width="30" height="30" as="geometry">
            <mxRectangle width="30" height="30" as="alternateBounds" />
          </mxGeometry>
        </mxCell>
        <mxCell id="OOhjOFWducsfs52bPkuV-84" value="status boolean NOT NULL DEFAULTÂ  false" style="shape=partialRectangle;overflow=hidden;connectable=0;fillColor=none;top=0;left=0;bottom=0;right=0;align=left;spacingLeft=6;" vertex="1" parent="OOhjOFWducsfs52bPkuV-82">
          <mxGeometry x="30" width="400" height="30" as="geometry">
            <mxRectangle width="400" height="30" as="alternateBounds" />
          </mxGeometry>
        </mxCell>
        <mxCell id="OOhjOFWducsfs52bPkuV-85" value="" style="shape=partialRectangle;collapsible=0;dropTarget=0;pointerEvents=0;fillColor=none;points=[[0,0.5],[1,0.5]];portConstraint=eastwest;top=0;left=0;right=0;bottom=0;" vertex="1" parent="OOhjOFWducsfs52bPkuV-75">
          <mxGeometry y="120" width="430" height="30" as="geometry" />
        </mxCell>
        <mxCell id="OOhjOFWducsfs52bPkuV-86" value="" style="shape=partialRectangle;overflow=hidden;connectable=0;fillColor=none;top=0;left=0;bottom=0;right=0;" vertex="1" parent="OOhjOFWducsfs52bPkuV-85">
          <mxGeometry width="30" height="30" as="geometry">
            <mxRectangle width="30" height="30" as="alternateBounds" />
          </mxGeometry>
        </mxCell>
        <mxCell id="OOhjOFWducsfs52bPkuV-87" value="created_at timestamp() NOT NULL DEFAULT NOW" style="shape=partialRectangle;overflow=hidden;connectable=0;fillColor=none;top=0;left=0;bottom=0;right=0;align=left;spacingLeft=6;" vertex="1" parent="OOhjOFWducsfs52bPkuV-85">
          <mxGeometry x="30" width="400" height="30" as="geometry">
            <mxRectangle width="400" height="30" as="alternateBounds" />
          </mxGeometry>
        </mxCell>
        <mxCell id="OOhjOFWducsfs52bPkuV-88" value="" style="shape=partialRectangle;collapsible=0;dropTarget=0;pointerEvents=0;fillColor=none;points=[[0,0.5],[1,0.5]];portConstraint=eastwest;top=0;left=0;right=0;bottom=0;" vertex="1" parent="OOhjOFWducsfs52bPkuV-75">
          <mxGeometry y="150" width="430" height="30" as="geometry" />
        </mxCell>
        <mxCell id="OOhjOFWducsfs52bPkuV-89" value="" style="shape=partialRectangle;overflow=hidden;connectable=0;fillColor=none;top=0;left=0;bottom=0;right=0;" vertex="1" parent="OOhjOFWducsfs52bPkuV-88">
          <mxGeometry width="30" height="30" as="geometry">
            <mxRectangle width="30" height="30" as="alternateBounds" />
          </mxGeometry>
        </mxCell>
        <mxCell id="OOhjOFWducsfs52bPkuV-90" value="updated_atÂ  timestamp() NOT NULL DEFAULT NOW" style="shape=partialRectangle;overflow=hidden;connectable=0;fillColor=none;top=0;left=0;bottom=0;right=0;align=left;spacingLeft=6;" vertex="1" parent="OOhjOFWducsfs52bPkuV-88">
          <mxGeometry x="30" width="400" height="30" as="geometry">
            <mxRectangle width="400" height="30" as="alternateBounds" />
          </mxGeometry>
        </mxCell>
        <mxCell id="OOhjOFWducsfs52bPkuV-107" value="active_driver" style="shape=table;startSize=30;container=1;collapsible=1;childLayout=tableLayout;fixedRows=1;rowLines=0;fontStyle=1;align=center;resizeLast=1;" vertex="1" parent="1">
          <mxGeometry x="1760" y="590" width="430" height="180" as="geometry" />
        </mxCell>
        <mxCell id="OOhjOFWducsfs52bPkuV-108" value="" style="shape=partialRectangle;collapsible=0;dropTarget=0;pointerEvents=0;fillColor=none;points=[[0,0.5],[1,0.5]];portConstraint=eastwest;top=0;left=0;right=0;bottom=1;" vertex="1" parent="OOhjOFWducsfs52bPkuV-107">
          <mxGeometry y="30" width="430" height="30" as="geometry" />
        </mxCell>
        <mxCell id="OOhjOFWducsfs52bPkuV-109" value="PK" style="shape=partialRectangle;overflow=hidden;connectable=0;fillColor=none;top=0;left=0;bottom=0;right=0;fontStyle=1;" vertex="1" parent="OOhjOFWducsfs52bPkuV-108">
          <mxGeometry width="30" height="30" as="geometry">
            <mxRectangle width="30" height="30" as="alternateBounds" />
          </mxGeometry>
        </mxCell>
        <mxCell id="OOhjOFWducsfs52bPkuV-110" value="id BIGINT(20) UNSIGNED NOT NULL AUTOINCREMENT" style="shape=partialRectangle;overflow=hidden;connectable=0;fillColor=none;top=0;left=0;bottom=0;right=0;align=left;spacingLeft=6;fontStyle=5;" vertex="1" parent="OOhjOFWducsfs52bPkuV-108">
          <mxGeometry x="30" width="400" height="30" as="geometry">
            <mxRectangle width="400" height="30" as="alternateBounds" />
          </mxGeometry>
        </mxCell>
        <mxCell id="OOhjOFWducsfs52bPkuV-111" value="" style="shape=partialRectangle;collapsible=0;dropTarget=0;pointerEvents=0;fillColor=none;points=[[0,0.5],[1,0.5]];portConstraint=eastwest;top=0;left=0;right=0;bottom=0;" vertex="1" parent="OOhjOFWducsfs52bPkuV-107">
          <mxGeometry y="60" width="430" height="30" as="geometry" />
        </mxCell>
        <mxCell id="OOhjOFWducsfs52bPkuV-112" value="FK1" style="shape=partialRectangle;overflow=hidden;connectable=0;fillColor=none;top=0;left=0;bottom=0;right=0;" vertex="1" parent="OOhjOFWducsfs52bPkuV-111">
          <mxGeometry width="30" height="30" as="geometry">
            <mxRectangle width="30" height="30" as="alternateBounds" />
          </mxGeometry>
        </mxCell>
        <mxCell id="OOhjOFWducsfs52bPkuV-113" value="driver_id BIGINT(20) UNSIGNED NOT NULL" style="shape=partialRectangle;overflow=hidden;connectable=0;fillColor=none;top=0;left=0;bottom=0;right=0;align=left;spacingLeft=6;" vertex="1" parent="OOhjOFWducsfs52bPkuV-111">
          <mxGeometry x="30" width="400" height="30" as="geometry">
            <mxRectangle width="400" height="30" as="alternateBounds" />
          </mxGeometry>
        </mxCell>
        <mxCell id="OOhjOFWducsfs52bPkuV-117" value="" style="shape=partialRectangle;collapsible=0;dropTarget=0;pointerEvents=0;fillColor=none;points=[[0,0.5],[1,0.5]];portConstraint=eastwest;top=0;left=0;right=0;bottom=0;" vertex="1" parent="OOhjOFWducsfs52bPkuV-107">
          <mxGeometry y="90" width="430" height="30" as="geometry" />
        </mxCell>
        <mxCell id="OOhjOFWducsfs52bPkuV-118" value="" style="shape=partialRectangle;overflow=hidden;connectable=0;fillColor=none;top=0;left=0;bottom=0;right=0;" vertex="1" parent="OOhjOFWducsfs52bPkuV-117">
          <mxGeometry width="30" height="30" as="geometry">
            <mxRectangle width="30" height="30" as="alternateBounds" />
          </mxGeometry>
        </mxCell>
        <mxCell id="OOhjOFWducsfs52bPkuV-119" value="created_at timestamp() NOT NULL DEFAULT NOW" style="shape=partialRectangle;overflow=hidden;connectable=0;fillColor=none;top=0;left=0;bottom=0;right=0;align=left;spacingLeft=6;" vertex="1" parent="OOhjOFWducsfs52bPkuV-117">
          <mxGeometry x="30" width="400" height="30" as="geometry">
            <mxRectangle width="400" height="30" as="alternateBounds" />
          </mxGeometry>
        </mxCell>
        <mxCell id="OOhjOFWducsfs52bPkuV-120" value="" style="shape=partialRectangle;collapsible=0;dropTarget=0;pointerEvents=0;fillColor=none;points=[[0,0.5],[1,0.5]];portConstraint=eastwest;top=0;left=0;right=0;bottom=0;" vertex="1" parent="OOhjOFWducsfs52bPkuV-107">
          <mxGeometry y="120" width="430" height="30" as="geometry" />
        </mxCell>
        <mxCell id="OOhjOFWducsfs52bPkuV-121" value="" style="shape=partialRectangle;overflow=hidden;connectable=0;fillColor=none;top=0;left=0;bottom=0;right=0;" vertex="1" parent="OOhjOFWducsfs52bPkuV-120">
          <mxGeometry width="30" height="30" as="geometry">
            <mxRectangle width="30" height="30" as="alternateBounds" />
          </mxGeometry>
        </mxCell>
        <mxCell id="OOhjOFWducsfs52bPkuV-122" value="updated_atÂ  timestamp() NOT NULL DEFAULT NOW" style="shape=partialRectangle;overflow=hidden;connectable=0;fillColor=none;top=0;left=0;bottom=0;right=0;align=left;spacingLeft=6;" vertex="1" parent="OOhjOFWducsfs52bPkuV-120">
          <mxGeometry x="30" width="400" height="30" as="geometry">
            <mxRectangle width="400" height="30" as="alternateBounds" />
          </mxGeometry>
        </mxCell>
        <mxCell id="OOhjOFWducsfs52bPkuV-123" value="" style="edgeStyle=entityRelationEdgeStyle;fontSize=12;html=1;endArrow=ERoneToMany;rounded=0;" edge="1" parent="1" source="OOhjOFWducsfs52bPkuV-1" target="OOhjOFWducsfs52bPkuV-124">
          <mxGeometry width="100" height="100" relative="1" as="geometry">
            <mxPoint x="1430" y="193" as="sourcePoint" />
            <mxPoint x="1600" y="193" as="targetPoint" />
            <Array as="points">
              <mxPoint x="1590" y="180" />
              <mxPoint x="840" y="860" />
              <mxPoint x="790" y="860" />
            </Array>
          </mxGeometry>
        </mxCell>
        <mxCell id="OOhjOFWducsfs52bPkuV-124" value="trains" style="shape=table;startSize=30;container=1;collapsible=1;childLayout=tableLayout;fixedRows=1;rowLines=0;fontStyle=1;align=center;resizeLast=1;" vertex="1" parent="1">
          <mxGeometry x="1610" y="90" width="440" height="220" as="geometry" />
        </mxCell>
        <mxCell id="OOhjOFWducsfs52bPkuV-125" value="" style="shape=partialRectangle;collapsible=0;dropTarget=0;pointerEvents=0;fillColor=none;points=[[0,0.5],[1,0.5]];portConstraint=eastwest;top=0;left=0;right=0;bottom=1;" vertex="1" parent="OOhjOFWducsfs52bPkuV-124">
          <mxGeometry y="30" width="440" height="30" as="geometry" />
        </mxCell>
        <mxCell id="OOhjOFWducsfs52bPkuV-126" value="PK" style="shape=partialRectangle;overflow=hidden;connectable=0;fillColor=none;top=0;left=0;bottom=0;right=0;fontStyle=1;" vertex="1" parent="OOhjOFWducsfs52bPkuV-125">
          <mxGeometry width="30" height="30" as="geometry">
            <mxRectangle width="30" height="30" as="alternateBounds" />
          </mxGeometry>
        </mxCell>
        <mxCell id="OOhjOFWducsfs52bPkuV-127" value="serial_number varchar(10) NOT NULL" style="shape=partialRectangle;overflow=hidden;connectable=0;fillColor=none;top=0;left=0;bottom=0;right=0;align=left;spacingLeft=6;fontStyle=5;" vertex="1" parent="OOhjOFWducsfs52bPkuV-125">
          <mxGeometry x="30" width="410" height="30" as="geometry">
            <mxRectangle width="410" height="30" as="alternateBounds" />
          </mxGeometry>
        </mxCell>
        <mxCell id="OOhjOFWducsfs52bPkuV-128" value="" style="shape=partialRectangle;collapsible=0;dropTarget=0;pointerEvents=0;fillColor=none;points=[[0,0.5],[1,0.5]];portConstraint=eastwest;top=0;left=0;right=0;bottom=0;" vertex="1" parent="OOhjOFWducsfs52bPkuV-124">
          <mxGeometry y="60" width="440" height="30" as="geometry" />
        </mxCell>
        <mxCell id="OOhjOFWducsfs52bPkuV-129" value="" style="shape=partialRectangle;overflow=hidden;connectable=0;fillColor=none;top=0;left=0;bottom=0;right=0;" vertex="1" parent="OOhjOFWducsfs52bPkuV-128">
          <mxGeometry width="30" height="30" as="geometry">
            <mxRectangle width="30" height="30" as="alternateBounds" />
          </mxGeometry>
        </mxCell>
        <mxCell id="OOhjOFWducsfs52bPkuV-130" value="line_id BIGINT(20) UNSIGNED NOT NULL" style="shape=partialRectangle;overflow=hidden;connectable=0;fillColor=none;top=0;left=0;bottom=0;right=0;align=left;spacingLeft=6;" vertex="1" parent="OOhjOFWducsfs52bPkuV-128">
          <mxGeometry x="30" width="410" height="30" as="geometry">
            <mxRectangle width="410" height="30" as="alternateBounds" />
          </mxGeometry>
        </mxCell>
        <mxCell id="OOhjOFWducsfs52bPkuV-131" value="" style="shape=partialRectangle;collapsible=0;dropTarget=0;pointerEvents=0;fillColor=none;points=[[0,0.5],[1,0.5]];portConstraint=eastwest;top=0;left=0;right=0;bottom=0;" vertex="1" parent="OOhjOFWducsfs52bPkuV-124">
          <mxGeometry y="90" width="440" height="30" as="geometry" />
        </mxCell>
        <mxCell id="OOhjOFWducsfs52bPkuV-132" value="" style="shape=partialRectangle;overflow=hidden;connectable=0;fillColor=none;top=0;left=0;bottom=0;right=0;" vertex="1" parent="OOhjOFWducsfs52bPkuV-131">
          <mxGeometry width="30" height="30" as="geometry">
            <mxRectangle width="30" height="30" as="alternateBounds" />
          </mxGeometry>
        </mxCell>
        <mxCell id="OOhjOFWducsfs52bPkuV-133" value="type tinyint(4) NOT NULL" style="shape=partialRectangle;overflow=hidden;connectable=0;fillColor=none;top=0;left=0;bottom=0;right=0;align=left;spacingLeft=6;" vertex="1" parent="OOhjOFWducsfs52bPkuV-131">
          <mxGeometry x="30" width="410" height="30" as="geometry">
            <mxRectangle width="410" height="30" as="alternateBounds" />
          </mxGeometry>
        </mxCell>
        <mxCell id="OOhjOFWducsfs52bPkuV-140" value="" style="shape=partialRectangle;collapsible=0;dropTarget=0;pointerEvents=0;fillColor=none;points=[[0,0.5],[1,0.5]];portConstraint=eastwest;top=0;left=0;right=0;bottom=0;" vertex="1" parent="OOhjOFWducsfs52bPkuV-124">
          <mxGeometry y="120" width="440" height="30" as="geometry" />
        </mxCell>
        <mxCell id="OOhjOFWducsfs52bPkuV-141" value="" style="shape=partialRectangle;overflow=hidden;connectable=0;fillColor=none;top=0;left=0;bottom=0;right=0;" vertex="1" parent="OOhjOFWducsfs52bPkuV-140">
          <mxGeometry width="30" height="30" as="geometry">
            <mxRectangle width="30" height="30" as="alternateBounds" />
          </mxGeometry>
        </mxCell>
        <mxCell id="OOhjOFWducsfs52bPkuV-142" value="year INT(4) NOT NULL" style="shape=partialRectangle;overflow=hidden;connectable=0;fillColor=none;top=0;left=0;bottom=0;right=0;align=left;spacingLeft=6;" vertex="1" parent="OOhjOFWducsfs52bPkuV-140">
          <mxGeometry x="30" width="410" height="30" as="geometry">
            <mxRectangle width="410" height="30" as="alternateBounds" />
          </mxGeometry>
        </mxCell>
        <mxCell id="OOhjOFWducsfs52bPkuV-134" value="" style="shape=partialRectangle;collapsible=0;dropTarget=0;pointerEvents=0;fillColor=none;points=[[0,0.5],[1,0.5]];portConstraint=eastwest;top=0;left=0;right=0;bottom=0;" vertex="1" parent="OOhjOFWducsfs52bPkuV-124">
          <mxGeometry y="150" width="440" height="30" as="geometry" />
        </mxCell>
        <mxCell id="OOhjOFWducsfs52bPkuV-135" value="" style="shape=partialRectangle;overflow=hidden;connectable=0;fillColor=none;top=0;left=0;bottom=0;right=0;" vertex="1" parent="OOhjOFWducsfs52bPkuV-134">
          <mxGeometry width="30" height="30" as="geometry">
            <mxRectangle width="30" height="30" as="alternateBounds" />
          </mxGeometry>
        </mxCell>
        <mxCell id="OOhjOFWducsfs52bPkuV-136" value="created_at timestamp() NOT NULL DEFAULT NOW" style="shape=partialRectangle;overflow=hidden;connectable=0;fillColor=none;top=0;left=0;bottom=0;right=0;align=left;spacingLeft=6;" vertex="1" parent="OOhjOFWducsfs52bPkuV-134">
          <mxGeometry x="30" width="410" height="30" as="geometry">
            <mxRectangle width="410" height="30" as="alternateBounds" />
          </mxGeometry>
        </mxCell>
        <mxCell id="OOhjOFWducsfs52bPkuV-137" value="" style="shape=partialRectangle;collapsible=0;dropTarget=0;pointerEvents=0;fillColor=none;points=[[0,0.5],[1,0.5]];portConstraint=eastwest;top=0;left=0;right=0;bottom=0;" vertex="1" parent="OOhjOFWducsfs52bPkuV-124">
          <mxGeometry y="180" width="440" height="30" as="geometry" />
        </mxCell>
        <mxCell id="OOhjOFWducsfs52bPkuV-138" value="" style="shape=partialRectangle;overflow=hidden;connectable=0;fillColor=none;top=0;left=0;bottom=0;right=0;" vertex="1" parent="OOhjOFWducsfs52bPkuV-137">
          <mxGeometry width="30" height="30" as="geometry">
            <mxRectangle width="30" height="30" as="alternateBounds" />
          </mxGeometry>
        </mxCell>
        <mxCell id="OOhjOFWducsfs52bPkuV-139" value="updated_atÂ  timestamp() NOT NULL DEFAULT NOW" style="shape=partialRectangle;overflow=hidden;connectable=0;fillColor=none;top=0;left=0;bottom=0;right=0;align=left;spacingLeft=6;" vertex="1" parent="OOhjOFWducsfs52bPkuV-137">
          <mxGeometry x="30" width="410" height="30" as="geometry">
            <mxRectangle width="410" height="30" as="alternateBounds" />
          </mxGeometry>
        </mxCell>
        <mxCell id="OOhjOFWducsfs52bPkuV-143" value="" style="edgeStyle=entityRelationEdgeStyle;fontSize=12;html=1;endArrow=ERmandOne;startArrow=ERmandOne;rounded=0;" edge="1" parent="1" source="OOhjOFWducsfs52bPkuV-36" target="OOhjOFWducsfs52bPkuV-56">
          <mxGeometry width="100" height="100" relative="1" as="geometry">
            <mxPoint x="1490" y="570" as="sourcePoint" />
            <mxPoint x="1530" y="470" as="targetPoint" />
          </mxGeometry>
        </mxCell>
        <mxCell id="OOhjOFWducsfs52bPkuV-144" value="" style="edgeStyle=entityRelationEdgeStyle;fontSize=12;html=1;endArrow=ERmandOne;startArrow=ERmandOne;rounded=0;" edge="1" parent="1" source="OOhjOFWducsfs52bPkuV-75" target="OOhjOFWducsfs52bPkuV-107">
          <mxGeometry width="100" height="100" relative="1" as="geometry">
            <mxPoint x="1400" y="625" as="sourcePoint" />
            <mxPoint x="1810" y="550" as="targetPoint" />
            <Array as="points">
              <mxPoint x="1480" y="570" />
              <mxPoint x="1890" y="490" />
              <mxPoint x="1880" y="520" />
            </Array>
          </mxGeometry>
        </mxCell>
        <mxCell id="OOhjOFWducsfs52bPkuV-146" value="lines_stations" style="shape=table;startSize=30;container=1;collapsible=1;childLayout=tableLayout;fixedRows=1;rowLines=0;fontStyle=1;align=center;resizeLast=1;" vertex="1" parent="1">
          <mxGeometry x="1020" y="320" width="440" height="190" as="geometry" />
        </mxCell>
        <mxCell id="OOhjOFWducsfs52bPkuV-147" value="" style="shape=partialRectangle;collapsible=0;dropTarget=0;pointerEvents=0;fillColor=none;points=[[0,0.5],[1,0.5]];portConstraint=eastwest;top=0;left=0;right=0;bottom=1;" vertex="1" parent="OOhjOFWducsfs52bPkuV-146">
          <mxGeometry y="30" width="440" height="30" as="geometry" />
        </mxCell>
        <mxCell id="OOhjOFWducsfs52bPkuV-148" value="PK" style="shape=partialRectangle;overflow=hidden;connectable=0;fillColor=none;top=0;left=0;bottom=0;right=0;fontStyle=1;" vertex="1" parent="OOhjOFWducsfs52bPkuV-147">
          <mxGeometry width="30" height="30" as="geometry">
            <mxRectangle width="30" height="30" as="alternateBounds" />
          </mxGeometry>
        </mxCell>
        <mxCell id="OOhjOFWducsfs52bPkuV-149" value="serial_number varchar(10) NOT NULL" style="shape=partialRectangle;overflow=hidden;connectable=0;fillColor=none;top=0;left=0;bottom=0;right=0;align=left;spacingLeft=6;fontStyle=5;" vertex="1" parent="OOhjOFWducsfs52bPkuV-147">
          <mxGeometry x="30" width="410" height="30" as="geometry">
            <mxRectangle width="410" height="30" as="alternateBounds" />
          </mxGeometry>
        </mxCell>
        <mxCell id="OOhjOFWducsfs52bPkuV-150" value="" style="shape=partialRectangle;collapsible=0;dropTarget=0;pointerEvents=0;fillColor=none;points=[[0,0.5],[1,0.5]];portConstraint=eastwest;top=0;left=0;right=0;bottom=0;" vertex="1" parent="OOhjOFWducsfs52bPkuV-146">
          <mxGeometry y="60" width="440" height="30" as="geometry" />
        </mxCell>
        <mxCell id="OOhjOFWducsfs52bPkuV-151" value="" style="shape=partialRectangle;overflow=hidden;connectable=0;fillColor=none;top=0;left=0;bottom=0;right=0;" vertex="1" parent="OOhjOFWducsfs52bPkuV-150">
          <mxGeometry width="30" height="30" as="geometry">
            <mxRectangle width="30" height="30" as="alternateBounds" />
          </mxGeometry>
        </mxCell>
        <mxCell id="OOhjOFWducsfs52bPkuV-152" value="line_id BIGINT(20) UNSIGNED NOT NULL" style="shape=partialRectangle;overflow=hidden;connectable=0;fillColor=none;top=0;left=0;bottom=0;right=0;align=left;spacingLeft=6;" vertex="1" parent="OOhjOFWducsfs52bPkuV-150">
          <mxGeometry x="30" width="410" height="30" as="geometry">
            <mxRectangle width="410" height="30" as="alternateBounds" />
          </mxGeometry>
        </mxCell>
        <mxCell id="OOhjOFWducsfs52bPkuV-165" value="" style="shape=partialRectangle;collapsible=0;dropTarget=0;pointerEvents=0;fillColor=none;points=[[0,0.5],[1,0.5]];portConstraint=eastwest;top=0;left=0;right=0;bottom=0;" vertex="1" parent="OOhjOFWducsfs52bPkuV-146">
          <mxGeometry y="90" width="440" height="30" as="geometry" />
        </mxCell>
        <mxCell id="OOhjOFWducsfs52bPkuV-166" value="" style="shape=partialRectangle;overflow=hidden;connectable=0;fillColor=none;top=0;left=0;bottom=0;right=0;" vertex="1" parent="OOhjOFWducsfs52bPkuV-165">
          <mxGeometry width="30" height="30" as="geometry">
            <mxRectangle width="30" height="30" as="alternateBounds" />
          </mxGeometry>
        </mxCell>
        <mxCell id="OOhjOFWducsfs52bPkuV-167" value="station_id BIGINT(20) UNSIGNED NOT NULL" style="shape=partialRectangle;overflow=hidden;connectable=0;fillColor=none;top=0;left=0;bottom=0;right=0;align=left;spacingLeft=6;" vertex="1" parent="OOhjOFWducsfs52bPkuV-165">
          <mxGeometry x="30" width="410" height="30" as="geometry">
            <mxRectangle width="410" height="30" as="alternateBounds" />
          </mxGeometry>
        </mxCell>
        <mxCell id="OOhjOFWducsfs52bPkuV-159" value="" style="shape=partialRectangle;collapsible=0;dropTarget=0;pointerEvents=0;fillColor=none;points=[[0,0.5],[1,0.5]];portConstraint=eastwest;top=0;left=0;right=0;bottom=0;" vertex="1" parent="OOhjOFWducsfs52bPkuV-146">
          <mxGeometry y="120" width="440" height="30" as="geometry" />
        </mxCell>
        <mxCell id="OOhjOFWducsfs52bPkuV-160" value="" style="shape=partialRectangle;overflow=hidden;connectable=0;fillColor=none;top=0;left=0;bottom=0;right=0;" vertex="1" parent="OOhjOFWducsfs52bPkuV-159">
          <mxGeometry width="30" height="30" as="geometry">
            <mxRectangle width="30" height="30" as="alternateBounds" />
          </mxGeometry>
        </mxCell>
        <mxCell id="OOhjOFWducsfs52bPkuV-161" value="created_at timestamp() NOT NULL DEFAULT NOW" style="shape=partialRectangle;overflow=hidden;connectable=0;fillColor=none;top=0;left=0;bottom=0;right=0;align=left;spacingLeft=6;" vertex="1" parent="OOhjOFWducsfs52bPkuV-159">
          <mxGeometry x="30" width="410" height="30" as="geometry">
            <mxRectangle width="410" height="30" as="alternateBounds" />
          </mxGeometry>
        </mxCell>
        <mxCell id="OOhjOFWducsfs52bPkuV-162" value="" style="shape=partialRectangle;collapsible=0;dropTarget=0;pointerEvents=0;fillColor=none;points=[[0,0.5],[1,0.5]];portConstraint=eastwest;top=0;left=0;right=0;bottom=0;" vertex="1" parent="OOhjOFWducsfs52bPkuV-146">
          <mxGeometry y="150" width="440" height="30" as="geometry" />
        </mxCell>
        <mxCell id="OOhjOFWducsfs52bPkuV-163" value="" style="shape=partialRectangle;overflow=hidden;connectable=0;fillColor=none;top=0;left=0;bottom=0;right=0;" vertex="1" parent="OOhjOFWducsfs52bPkuV-162">
          <mxGeometry width="30" height="30" as="geometry">
            <mxRectangle width="30" height="30" as="alternateBounds" />
          </mxGeometry>
        </mxCell>
        <mxCell id="OOhjOFWducsfs52bPkuV-164" value="updated_atÂ  timestamp() NOT NULL DEFAULT NOW" style="shape=partialRectangle;overflow=hidden;connectable=0;fillColor=none;top=0;left=0;bottom=0;right=0;align=left;spacingLeft=6;" vertex="1" parent="OOhjOFWducsfs52bPkuV-162">
          <mxGeometry x="30" width="410" height="30" as="geometry">
            <mxRectangle width="410" height="30" as="alternateBounds" />
          </mxGeometry>
        </mxCell>
        <mxCell id="OOhjOFWducsfs52bPkuV-169" value="" style="edgeStyle=entityRelationEdgeStyle;fontSize=12;html=1;endArrow=ERoneToMany;rounded=0;exitX=0.449;exitY=-0.009;exitDx=0;exitDy=0;exitPerimeter=0;entryX=0.5;entryY=1;entryDx=0;entryDy=0;" edge="1" parent="1" source="OOhjOFWducsfs52bPkuV-146" target="OOhjOFWducsfs52bPkuV-1">
          <mxGeometry width="100" height="100" relative="1" as="geometry">
            <mxPoint x="1170" y="490" as="sourcePoint" />
            <mxPoint x="1240" y="270" as="targetPoint" />
          </mxGeometry>
        </mxCell>
      </root>
    </mxGraphModel>
  </diagram>
</mxfile>
